<svg xmlns="http://www.w3.org/2000/svg" viewBox="0 0 224 195"><defs><style>.cls-1{fill:#333;}.cls-2{fill:none;}</style></defs><title>dv_2</title><g id="Layer_2" data-name="Layer 2"><g id="Layer_1-2" data-name="Layer 1"><path class="cls-1" d="M126.69,109.85l-12.26,18.58,18.34,26.43a3.34,3.34,0,0,0,5.21.32l11.61-12.86a3.34,3.34,0,0,0,.13-4.32Z"/><path class="cls-1" d="M132.07,93.78c-.29-4.34-1.6-20-5.63-29.17a3.37,3.37,0,0,0-1.06-1.34,21.92,21.92,0,0,0-26.77,0,3.35,3.35,0,0,0-1.06,1.34c-4,9.15-5.33,24.84-5.63,29.17a3.36,3.36,0,0,0,.56,2.08l4.25,6.37,12.18-16-4.61-6.49a2.23,2.23,0,0,1,1.24-3.44,29.3,29.3,0,0,1,12.74,0,2.23,2.23,0,0,1,1.21,3.53L112.37,89,74.3,138a3.32,3.32,0,0,0,.13,4.32L86,155.17a3.33,3.33,0,0,0,5.21-.32l40.29-59A3.32,3.32,0,0,0,132.07,93.78Z"/><rect class="cls-2" width="224" height="195"/></g></g></svg>