<svg xmlns="http://www.w3.org/2000/svg" viewBox="0 0 258.1 227"><defs><style>.cls-1{fill:none;}.cls-2{fill:#333;}</style></defs><title>family</title><g id="Layer_2" data-name="Layer 2"><g id="Layer_1-2" data-name="Layer 1"><rect class="cls-1" width="258.1" height="227"/><path class="cls-2" d="M91.43,140.44a24.87,24.87,0,0,0-24.87,24.87v13.78a3.61,3.61,0,0,0,3.61,3.61H98.74V167.91a29.29,29.29,0,0,1,9.13-21.24,24.74,24.74,0,0,0-16.43-6.24"/><path class="cls-2" d="M82.24,133.52a16.95,16.95,0,1,0-7.78-14.23,16.85,16.85,0,0,0,7.78,14.23"/><path class="cls-2" d="M128.13,146.76A21.15,21.15,0,0,0,107,167.91v11.18a3.61,3.61,0,0,0,3.61,3.61h35.09a3.61,3.61,0,0,0,3.61-3.61V167.91a21.15,21.15,0,0,0-21.15-21.15"/><path class="cls-2" d="M119.11,140a14.37,14.37,0,1,0-5.41-11.18A14.3,14.3,0,0,0,119.11,140"/><path class="cls-2" d="M157.85,165.31c.46,4.32,0,17.39,0,17.39h29.09a3.61,3.61,0,0,0,3.61-3.61v-17A27.51,27.51,0,0,0,163,134.52c-10.63.07-14.72,5.18-18.76,9.77,6.08,2.56,12.22,7.67,13.63,21"/><path class="cls-2" d="M181.79,111.07A18.81,18.81,0,1,0,163,129.88a18.81,18.81,0,0,0,18.81-18.81"/></g></g></svg>