<svg xmlns="http://www.w3.org/2000/svg" viewBox="0 0 224 195"><defs><style>.cls-1{fill:#333;}.cls-2{fill:none;}</style></defs><title>family_1</title><g id="Layer_2" data-name="Layer 2"><g id="Layer_1-2" data-name="Layer 1"><path class="cls-1" d="M74.88,110.45A24.87,24.87,0,0,0,50,135.33v13.78a3.61,3.61,0,0,0,3.61,3.61H82.18V137.93a29.29,29.29,0,0,1,9.13-21.24,24.74,24.74,0,0,0-16.43-6.24"/><path class="cls-1" d="M65.69,103.53A16.95,16.95,0,1,0,57.91,89.3a16.85,16.85,0,0,0,7.78,14.23"/><path class="cls-1" d="M111.58,116.78a21.15,21.15,0,0,0-21.15,21.15v11.18A3.61,3.61,0,0,0,94,152.72h35.09a3.61,3.61,0,0,0,3.61-3.61V137.93a21.15,21.15,0,0,0-21.15-21.15"/><path class="cls-1" d="M102.56,110a14.37,14.37,0,1,0-5.41-11.18A14.3,14.3,0,0,0,102.56,110"/><path class="cls-1" d="M141.3,135.33c.46,4.32,0,17.39,0,17.39h29.09a3.61,3.61,0,0,0,3.61-3.61v-17a27.51,27.51,0,0,0-27.57-27.57c-10.63.07-14.72,5.18-18.76,9.77,6.08,2.56,12.22,7.67,13.63,21"/><path class="cls-1" d="M165.24,81.09A18.81,18.81,0,1,0,146.43,99.9a18.81,18.81,0,0,0,18.81-18.81"/><rect class="cls-2" width="224" height="195"/></g></g></svg>