<svg xmlns="http://www.w3.org/2000/svg" viewBox="0 0 86.9 96.3"><defs><style>.cls-1{fill:#333;}</style></defs><title>guardianship</title><g id="Layer_2" data-name="Layer 2"><g id="Layer_1-2" data-name="Layer 1"><path class="cls-1" d="M86.9,96.12c-9.91,0-19.33.38-28.69-.15-5.23-.3-7-6.67-3.27-10.63,4.75-5,9.74-9.81,14.62-14.7.9-.9,1.84-1.76,2.66-2.73,1.72-2,2.45-4.26.28-6.38s-4.4-1.44-6.34.46c-3.93,3.85-8.18,7.45-11.6,11.72-4.73,5.9-16.36,6.06-21.52.12-3.51-4-7.54-7.61-11.31-11.42-2-2-4.2-3.29-6.59-1s-1.43,4.82.73,7C21.06,73.58,26.2,78.81,31.44,84c2.39,2.34,3.93,4.92,2.6,8.29s-4.27,4.1-7.63,4.06c-8.18-.1-16.36-.06-24.54-.1A10,10,0,0,1,0,95.65C2.47,85.14,3.92,74.26,7.67,64.24,12.24,52,22.24,45.08,35.46,43.9c9-.8,18.08-1.36,26.61,2.62,9.73,4.54,16.47,11.81,19,22.38C83.23,77.76,84.91,86.73,86.9,96.12Zm-43.19-47A11.6,11.6,0,0,0,31.78,60.67a11.86,11.86,0,1,0,23.71.2A11.74,11.74,0,0,0,43.71,49.08Z"/><path class="cls-1" d="M62.46,19a19,19,0,0,1-19.06,19A19.21,19.21,0,0,1,24.46,19.22,19.19,19.19,0,0,1,43.42,0,18.91,18.91,0,0,1,62.46,19Z"/></g></g></svg>