<svg xmlns="http://www.w3.org/2000/svg" viewBox="0 0 258.1 227"><defs><style>.cls-1{fill:none;}.cls-2{fill:#494949;}.cls-3{fill:#5b5b5b;}.cls-4{fill:#333;}</style></defs><title>smallclaims_1</title><g id="Layer_2" data-name="Layer 2"><g id="Layer_1-2" data-name="Layer 1"><rect class="cls-1" width="258.1" height="227"/><g id="_Group_" data-name="&lt;Group&gt;"><polygon id="_Path_" data-name="&lt;Path&gt;" class="cls-2" points="191.4 100.93 89.46 100.93 89.46 92.78 191.4 100.93"/><polygon id="_Path_2" data-name="&lt;Path&gt;" class="cls-3" points="95.58 84.62 95.58 93.27 191.4 100.93 197.51 100.93 95.58 84.62"/><path class="cls-4" d="M85.39,100.93v65.24H199.55V100.93ZM96.6,107a5.1,5.1,0,1,1-5.1,5.1A5.1,5.1,0,0,1,96.6,107Zm0,53a5.1,5.1,0,1,1,5.1-5.1A5.1,5.1,0,0,1,96.6,160.05ZM177.18,156H156.55l0,0a26.62,26.62,0,0,1-4.89,2.44h0c-.56.21-1.13.4-1.7.57l-.22.06c-.52.15-1,.29-1.58.41l-.47.09c-.46.09-.92.19-1.38.25l-.79.09c-.37,0-.73.09-1.11.12-.53,0-1.07.05-1.6.06h-.41q-1,0-1.9-.07c-.31,0-.61-.07-.92-.1s-.67-.06-1-.11-.81-.14-1.21-.22l-.64-.12c-.47-.1-.93-.23-1.39-.36l-.4-.11c-.51-.15-1-.32-1.51-.5l-.22-.08c-.53-.2-1.06-.42-1.57-.65l-.09,0q-.81-.37-1.59-.79h0q-.79-.43-1.55-.9H107.76c0-.34.05-.67.05-1A11.21,11.21,0,0,0,96.6,143.74c-.34,0-.68,0-1,.05V123.31c.34,0,.67.05,1,.05a11.21,11.21,0,0,0,11.21-11.21c0-.34,0-.68-.05-1h20.63a26.43,26.43,0,0,0-.68,44.39l0,0a6.78,6.78,0,0,1,.66-.64,4.87,4.87,0,0,1,.76-.53l0,0h0l6.85-3.38a1.36,1.36,0,0,0,.76-1.22v-2a9.81,9.81,0,0,1-3.36-2.51,13.93,13.93,0,0,1-1.37-1.83,14.48,14.48,0,0,1-1-2,11.14,11.14,0,0,1-.59-1.64c-.13-.5-.27-1.15-.4-1.86-.07-.36-.13-.73-.19-1.12a13.47,13.47,0,0,1,0-5.29c2.14-6.44,5.65-8.34,8.39-9a18.44,18.44,0,0,1,2.93-.37,9.25,9.25,0,0,1,1,0,13.33,13.33,0,0,1,8.33,2.68,10.25,10.25,0,0,1,1.1,1q.3.33.57.67a12,12,0,0,1,2,3.75c.14.43.25.85.34,1.25,0,.09,0,.19,0,.29a8.79,8.79,0,0,1,.06,1.22c0,.42,0,.88-.06,1.35-.17,2.49-.65,5.41-.65,5.41-1,3.59-2.93,6.46-6.36,7.94v2a1.36,1.36,0,0,0,.74,1.21l5,2.57,1.66.85a5.8,5.8,0,0,1,1.88,1.49,26.44,26.44,0,0,0-.22-44.7h20.63c0,.34-.05.67-.05,1a11.21,11.21,0,0,0,11.21,11.21c.34,0,.68,0,1-.05V143.8c-.34,0-.68-.05-1-.05A11.21,11.21,0,0,0,177.13,155C177.13,155.3,177.15,155.64,177.18,156Zm11.16,4.08a5.1,5.1,0,1,1,5.1-5.1A5.1,5.1,0,0,1,188.34,160.05Zm0-42.81a5.1,5.1,0,1,1,5.1-5.1A5.1,5.1,0,0,1,188.34,117.24Z"/></g></g></g></svg>