<svg xmlns="http://www.w3.org/2000/svg" viewBox="0 0 224 195"><defs><style>.cls-1{fill:#333;}.cls-2{fill:none;}</style></defs><title>traffic_2</title><g id="Layer_2" data-name="Layer 2"><g id="Layer_1-2" data-name="Layer 1"><path class="cls-1" d="M167.91,83a6.12,6.12,0,0,0-1.62.23l-6.15,1.69-6.38-15.55a13.94,13.94,0,0,0-11.92-8H82.08a13.93,13.93,0,0,0-11.92,8L63.78,84.85l-6.07-1.67A6.11,6.11,0,0,0,56.09,83a5,5,0,0,0-5,5.28v3.62a6.48,6.48,0,0,0,6.48,6.48h.7l-1,2.51a48.57,48.57,0,0,0-3,15.45v30.9a6.48,6.48,0,0,0,6.48,6.48H69.1a6.48,6.48,0,0,0,6.48-6.48v-7.72h72.76v7.72a6.48,6.48,0,0,0,6.48,6.48h8.46a6.48,6.48,0,0,0,6.48-6.48V116.3a48.58,48.58,0,0,0-3-15.45l-1-2.51h.78a6.48,6.48,0,0,0,6.48-6.48V88.23A5,5,0,0,0,167.91,83ZM68.42,94.82l9.66-23.53a8.37,8.37,0,0,1,7.15-4.79h53.45a8.37,8.37,0,0,1,7.15,4.79l9.66,23.53c1.08,2.64-.36,4.79-3.21,4.79H71.64C68.79,99.61,67.34,97.45,68.42,94.82ZM90,124.58a2.6,2.6,0,0,1-2.59,2.59H69a2.6,2.6,0,0,1-2.59-2.59v-8.81A2.6,2.6,0,0,1,69,113.18H87.4A2.6,2.6,0,0,1,90,115.77Zm67.3,0a2.6,2.6,0,0,1-2.59,2.59H136.34a2.6,2.6,0,0,1-2.59-2.59v-8.81a2.6,2.6,0,0,1,2.59-2.59h18.35a2.6,2.6,0,0,1,2.59,2.59Z"/><rect class="cls-2" width="224" height="195"/></g></g></svg>