<svg xmlns="http://www.w3.org/2000/svg" viewBox="0 0 258.1 227"><defs><style>.cls-1{fill:none;}.cls-2{fill:#333;}</style></defs><title>traffic_1</title><g id="Layer_2" data-name="Layer 2"><g id="Layer_1-2" data-name="Layer 1"><rect class="cls-1" width="258.1" height="227"/><path class="cls-2" d="M192.93,103.16a6.12,6.12,0,0,0-1.62.23l-6.15,1.69-6.38-15.55a13.94,13.94,0,0,0-11.92-8H107.1a13.93,13.93,0,0,0-11.92,8l-6.38,15.53-6.07-1.67a6.11,6.11,0,0,0-1.62-.23,5,5,0,0,0-5,5.28v3.62a6.48,6.48,0,0,0,6.48,6.48h.7l-1,2.51a48.57,48.57,0,0,0-3,15.45v30.9a6.48,6.48,0,0,0,6.48,6.48h8.46a6.48,6.48,0,0,0,6.48-6.48v-7.72h72.76v7.72a6.48,6.48,0,0,0,6.48,6.48h8.46a6.48,6.48,0,0,0,6.48-6.48v-30.9a48.58,48.58,0,0,0-3-15.45l-1-2.51h.78a6.48,6.48,0,0,0,6.48-6.48v-3.62A5,5,0,0,0,192.93,103.16ZM93.45,115l9.66-23.53a8.37,8.37,0,0,1,7.15-4.79h53.45a8.37,8.37,0,0,1,7.15,4.79L180.52,115c1.08,2.64-.36,4.79-3.21,4.79H96.66C93.81,119.82,92.37,117.66,93.45,115ZM115,144.79a2.6,2.6,0,0,1-2.59,2.59H94.07a2.6,2.6,0,0,1-2.59-2.59V136a2.6,2.6,0,0,1,2.59-2.59h18.35A2.6,2.6,0,0,1,115,136Zm67.3,0a2.6,2.6,0,0,1-2.59,2.59H161.37a2.6,2.6,0,0,1-2.59-2.59V136a2.6,2.6,0,0,1,2.59-2.59h18.35a2.6,2.6,0,0,1,2.59,2.59Z"/></g></g></svg>